<svg width="49" height="49" viewBox="0 0 49 49" fill="none" xmlns="http://www.w3.org/2000/svg">
<g id="&#240;&#159;&#166;&#134; icon &#34;google&#34;">
<path id="Vector" d="M48.5235 19.7017H46.55V19.6H24.5V29.4H38.3462C36.3262 35.1048 30.8982 39.2 24.5 39.2C16.3819 39.2 9.8 32.6181 9.8 24.5C9.8 16.3819 16.3819 9.8 24.5 9.8C28.2473 9.8 31.6565 11.2136 34.2522 13.5228L41.1821 6.59295C36.8064 2.51493 30.9533 0 24.5 0C10.9699 0 0 10.9699 0 24.5C0 38.0301 10.9699 49 24.5 49C38.0301 49 49 38.0301 49 24.5C49 22.8573 48.831 21.2537 48.5235 19.7017Z" fill="#FFC107"/>
<path id="Vector_2" d="M2.82504 13.0965L10.8745 18.9998C13.0526 13.6073 18.3274 9.8 24.5002 9.8C28.2475 9.8 31.6566 11.2136 34.2524 13.5228L41.1822 6.59295C36.8065 2.51493 30.9535 0 24.5002 0C15.0897 0 6.92879 5.31283 2.82504 13.0965Z" fill="#FF3D00"/>
<path id="Vector_3" d="M24.4998 49C30.8281 49 36.5783 46.5782 40.9258 42.6398L33.3431 36.2233C30.8833 38.0865 27.8257 39.2 24.4998 39.2C18.1273 39.2 12.7165 35.1367 10.6781 29.4662L2.68866 35.6218C6.74341 43.5561 14.9779 49 24.4998 49Z" fill="#4CAF50"/>
<path id="Vector_4" d="M48.5235 19.7017H46.55V19.6H24.5V29.4H38.3462C37.376 32.1403 35.6132 34.5034 33.3396 36.2245C33.3408 36.2233 33.342 36.2233 33.3433 36.222L40.926 42.6386C40.3895 43.1261 49 36.75 49 24.5C49 22.8573 48.8309 21.2538 48.5235 19.7017Z" fill="#1976D2"/>
</g>
</svg>
